<?xml version="1.0" encoding="UTF-8"?>
<svg width="55px" height="63px" viewBox="0 0 55 63" version="1.1" xmlns="http://www.w3.org/2000/svg" xmlns:xlink="http://www.w3.org/1999/xlink">
    <!-- Generator: Sketch 59.1 (86144) - https://sketch.com -->
    <title>Group 3</title>
    <desc>Created with Sketch.</desc>
    <defs>
        <linearGradient x1="11.2403162%" y1="88.5578%" x2="70.1232491%" y2="21.6373836%" id="linearGradient-1">
            <stop stop-color="#50B848" offset="0%"></stop>
            <stop stop-color="#50B848" offset="50%"></stop>
            <stop stop-color="#56BA46" offset="56%"></stop>
            <stop stop-color="#66BF3F" offset="64%"></stop>
            <stop stop-color="#81C834" offset="73%"></stop>
            <stop stop-color="#A7D524" offset="82%"></stop>
            <stop stop-color="#D7E510" offset="93%"></stop>
            <stop stop-color="#FFF200" offset="100%"></stop>
        </linearGradient>
    </defs>
    <g id="Oi-Soluções" stroke="none" stroke-width="1" fill="none" fill-rule="evenodd">
        <g id="Desktop:-Oi-Soluções-(Pag-01)" transform="translate(-76.000000, -23.000000)" fill-rule="nonzero">
            <g id="Logo_OiSolucoes_4_HOR_CMYK" transform="translate(76.000000, 23.000000)">
                <g id="Group-3">
                    <path d="M0.822865515,45.3806547 C-7.93659509,79.0841884 56.1517619,57.6270343 54.984233,37.3728353 C54.1430135,22.6730214 38.8992768,8.540527 26.1552495,2.83465864 C2.91843025,-7.5582791 9.61525643,11.5256377 0.822865515,45.3806547 Z" id="Path" fill="url(#linearGradient-1)"></path>
                    <path d="M36.0362979,25.7447911 C37.6054397,25.7314471 38.8680362,24.4395797 38.8592999,22.8563642 C38.8504726,21.2731487 37.5736241,19.9956204 36.0044328,20.0000113 C34.4352415,20.0044248 33.1653985,21.2890975 33.1653985,22.8723378 C33.1685677,23.6373594 33.4728187,24.3697767 34.0112182,24.9084629 C34.5496177,25.4471491 35.2780619,25.7479767 36.0362979,25.7447911 Z M36.0752152,27.8590659 C34.4586504,27.8590659 33.1414494,31.6950106 33.1414494,36.4280227 C33.1414494,41.1610349 34.4586504,44.9939591 36.0752152,44.9939591 C37.69178,44.9939591 39,41.1610349 39,36.4280227 C39,31.6950106 37.69178,27.8802089 36.0752152,27.8802089 L36.0752152,27.8590659 Z M23.016964,27.8590659 C18.2031932,27.8590659 15,31.6617859 15,36.4310432 C15,41.2003004 18.2031932,45 23.016964,45 C27.8307347,45 31.0159661,41.2033209 31.0159661,36.4310432 C31.0159661,31.6587655 27.8187601,27.8590659 23.016964,27.8590659 Z M23.016964,40.9616865 C20.8106524,40.9616865 19.5862542,38.6963649 19.5862542,36.4008389 C19.5862542,34.1053129 20.8106524,31.9094611 23.016964,31.9094611 C25.2232755,31.9094611 26.4356991,34.1113538 26.4356991,36.4008389 C26.4356991,38.690324 25.2172883,40.9616865 23.016964,40.9616865 Z" id="Shape" fill="#FFFFFF"></path>
                </g>
            </g>
        </g>
    </g>
</svg>